<svg width="1440" height="1024" viewBox="0 0 1440 1024" fill="none" xmlns="http://www.w3.org/2000/svg">
<g clip-path="url(#clip0_165_136)">
<rect width="1440" height="1024" fill="#1E3259"/>
<rect x="1364" y="971" width="81.2667" height="53" fill="#EB916B"/>
<circle cx="126" cy="153" r="4.5" stroke="#D9D9D9"/>
<circle cx="254" cy="153" r="4.5" stroke="#D9D9D9"/>
<circle cx="190" cy="154" r="4.5" stroke="#D9D9D9"/>
<circle cx="318" cy="154" r="4.5" stroke="#D9D9D9"/>
<circle cx="126" cy="197" r="4.5" stroke="#D9D9D9"/>
<circle cx="254" cy="197" r="4.5" stroke="#D9D9D9"/>
<circle cx="190" cy="198" r="4.5" stroke="#D9D9D9"/>
<circle cx="318" cy="198" r="4.5" stroke="#D9D9D9"/>
<circle cx="126" cy="175" r="4.5" stroke="#D9D9D9"/>
<circle cx="254" cy="175" r="4.5" stroke="#D9D9D9"/>
<circle cx="190" cy="176" r="4.5" stroke="#D9D9D9"/>
<circle cx="318" cy="176" r="4.5" stroke="#D9D9D9"/>
<circle cx="126" cy="219" r="4.5" stroke="#D9D9D9"/>
<circle cx="254" cy="219" r="4.5" stroke="#D9D9D9"/>
<circle cx="190" cy="220" r="4.5" stroke="#D9D9D9"/>
<circle cx="318" cy="220" r="4.5" stroke="#D9D9D9"/>
<circle cx="158" cy="153" r="4.5" stroke="#D9D9D9"/>
<circle cx="286" cy="153" r="4.5" stroke="#D9D9D9"/>
<circle cx="222" cy="154" r="4.5" stroke="#D9D9D9"/>
<circle cx="350" cy="154" r="4.5" stroke="#D9D9D9"/>
<circle cx="158" cy="197" r="4.5" stroke="#D9D9D9"/>
<circle cx="286" cy="197" r="4.5" stroke="#D9D9D9"/>
<circle cx="222" cy="198" r="4.5" stroke="#D9D9D9"/>
<circle cx="350" cy="198" r="4.5" stroke="#D9D9D9"/>
<circle cx="158" cy="175" r="4.5" stroke="#D9D9D9"/>
<circle cx="286" cy="175" r="4.5" stroke="#D9D9D9"/>
<circle cx="222" cy="176" r="4.5" stroke="#D9D9D9"/>
<circle cx="350" cy="176" r="4.5" stroke="#D9D9D9"/>
<circle cx="158" cy="219" r="4.5" stroke="#D9D9D9"/>
<circle cx="286" cy="219" r="4.5" stroke="#D9D9D9"/>
<circle cx="222" cy="220" r="4.5" stroke="#D9D9D9"/>
<circle cx="350" cy="220" r="4.5" stroke="#D9D9D9"/>
<path d="M179.029 852.512L275.489 927.556L247.454 963.592L150.994 888.548L179.029 852.512Z" fill="#F3D4DB"/>
<path d="M158.353 942.189L233.541 846.541L269.889 875.113L194.701 970.762L158.353 942.189Z" fill="#F3D4DB"/>
<path d="M180.428 858.189L270.163 928.001L246.841 957.979L157.106 888.167L180.428 858.189Z" fill="#EB916B"/>
<path d="M164.28 941.703L234.543 852.32L264.403 875.793L194.14 965.176L164.28 941.703Z" fill="#EB916B"/>
<path d="M1390.31 128.298L1423.16 178.654L1404.34 190.926L1371.5 140.57L1390.31 128.298Z" fill="#F3D4DB"/>
<path d="M1366.33 166.699L1416.62 134.251L1428.95 153.364L1378.66 185.812L1366.33 166.699Z" fill="#F3D4DB"/>
<path d="M1390.05 131.163L1420.61 178.008L1404.96 188.217L1374.4 141.372L1390.05 131.163Z" fill="#EB916B"/>
<path d="M1369.16 167.423L1416.16 137.1L1426.29 152.801L1379.29 183.124L1369.16 167.423Z" fill="#EB916B"/>
<circle cx="108" cy="553" r="12" fill="#D9D9D9"/>
<rect x="1386.95" y="836" width="71.0497" height="22.9193" fill="#E6CCD2"/>
<rect x="78.9503" y="358" width="71.0497" height="22.9193" fill="#E6CCD2"/>
<rect x="1335" y="836" width="28.6491" height="22.9193" fill="#E6CCD2"/>
<rect x="27" y="358" width="28.6491" height="22.9193" fill="#E6CCD2"/>
</g>
<defs>
<clipPath id="clip0_165_136">
<rect width="1440" height="1024" fill="white"/>
</clipPath>
</defs>
</svg>
