<svg width="1440" height="1024" viewBox="0 0 1440 1024" fill="none" xmlns="http://www.w3.org/2000/svg">
<g clip-path="url(#clip0_165_249)">
<rect width="1440" height="1024" fill="white"/>
<rect x="1362" y="972" width="79.2667" height="51" fill="#EB916B" stroke="#06112D" stroke-width="2"/>
<circle cx="110" cy="153" r="4.5" stroke="#06112D"/>
<circle cx="238" cy="153" r="4.5" stroke="#06112D"/>
<circle cx="174" cy="154" r="4.5" stroke="#06112D"/>
<circle cx="302" cy="154" r="4.5" stroke="#06112D"/>
<circle cx="110" cy="197" r="4.5" stroke="#06112D"/>
<circle cx="238" cy="197" r="4.5" stroke="#06112D"/>
<circle cx="174" cy="198" r="4.5" stroke="#06112D"/>
<circle cx="302" cy="198" r="4.5" stroke="#06112D"/>
<circle cx="110" cy="175" r="4.5" stroke="#06112D"/>
<circle cx="238" cy="175" r="4.5" stroke="#06112D"/>
<circle cx="174" cy="176" r="4.5" stroke="#06112D"/>
<circle cx="302" cy="176" r="4.5" stroke="#06112D"/>
<circle cx="110" cy="219" r="4.5" stroke="#06112D"/>
<circle cx="238" cy="219" r="4.5" stroke="#06112D"/>
<circle cx="174" cy="220" r="4.5" stroke="#06112D"/>
<circle cx="302" cy="220" r="4.5" stroke="#06112D"/>
<circle cx="142" cy="153" r="4.5" stroke="#06112D"/>
<circle cx="270" cy="153" r="4.5" stroke="#06112D"/>
<circle cx="206" cy="154" r="4.5" stroke="#06112D"/>
<circle cx="334" cy="154" r="4.5" stroke="#06112D"/>
<circle cx="142" cy="197" r="4.5" stroke="#06112D"/>
<circle cx="270" cy="197" r="4.5" stroke="#06112D"/>
<circle cx="206" cy="198" r="4.5" stroke="#06112D"/>
<circle cx="334" cy="198" r="4.5" stroke="#06112D"/>
<circle cx="142" cy="175" r="4.5" stroke="#06112D"/>
<circle cx="270" cy="175" r="4.5" stroke="#06112D"/>
<circle cx="206" cy="176" r="4.5" stroke="#06112D"/>
<circle cx="334" cy="176" r="4.5" stroke="#06112D"/>
<circle cx="142" cy="219" r="4.5" stroke="#06112D"/>
<circle cx="270" cy="219" r="4.5" stroke="#06112D"/>
<circle cx="206" cy="220" r="4.5" stroke="#06112D"/>
<circle cx="334" cy="220" r="4.5" stroke="#06112D"/>
<path d="M176.029 852.512L272.489 927.556L244.454 963.592L147.994 888.548L176.029 852.512Z" fill="#06112D"/>
<path d="M155.353 942.189L230.541 846.541L266.889 875.113L191.701 970.762L155.353 942.189Z" fill="#06112D"/>
<path d="M177.428 858.188L267.163 928.001L243.841 957.979L154.106 888.167L177.428 858.188Z" fill="#EB916B"/>
<path d="M161.28 941.703L231.543 852.32L261.403 875.793L191.14 965.176L161.28 941.703Z" fill="#EB916B"/>
<path d="M1392.31 116.298L1425.16 166.654L1406.34 178.926L1373.5 128.57L1392.31 116.298Z" fill="#06112D"/>
<path d="M1368.33 154.699L1418.62 122.251L1430.95 141.364L1380.66 173.812L1368.33 154.699Z" fill="#06112D"/>
<path d="M1392.05 119.163L1422.61 166.008L1406.96 176.217L1376.4 129.372L1392.05 119.163Z" fill="#EB916B"/>
<path d="M1371.16 155.423L1418.16 125.1L1428.29 140.801L1381.29 171.124L1371.16 155.423Z" fill="#EB916B"/>
<circle cx="105" cy="553" r="12" fill="#1E3259"/>
<rect x="1383.95" y="836" width="71.0497" height="22.9193" fill="#1E3259"/>
<rect x="75.9502" y="358" width="71.0497" height="22.9193" fill="#1E3259"/>
<rect x="1332" y="836" width="28.6491" height="22.9193" fill="#1E3259"/>
<rect x="24" y="358" width="28.6491" height="22.9193" fill="#1E3259"/>
</g>
<defs>
<clipPath id="clip0_165_249">
<rect width="1440" height="1024" fill="white"/>
</clipPath>
</defs>
</svg>
