<svg width="45" height="45" viewBox="0 0 45 45" fill="none" xmlns="http://www.w3.org/2000/svg">
<path d="M16.7583 19.1876L27.2921 0.946748C25.7462 0.615498 24.1562 0.416748 22.5 0.416748C17.2 0.416748 12.3417 2.29383 8.54332 5.3855L16.6258 19.4084L16.7583 19.1876ZM43.5675 15.8751C41.5358 9.42675 36.6112 4.25925 30.3175 1.87425L22.235 15.8751H43.5675ZM44.1416 18.0834H27.6012L28.2416 19.1876L38.7533 37.4063C42.375 33.4755 44.5833 28.2638 44.5833 22.5001C44.5833 20.9763 44.4287 19.5188 44.1416 18.0834ZM14.8592 22.5001L6.24665 7.59383C2.64707 11.5247 0.416656 16.7363 0.416656 22.5001C0.416656 24.0238 0.57124 25.4813 0.858323 26.9167H17.3987L14.8592 22.5001ZM1.43249 29.1251C3.46416 35.5734 8.38874 40.7409 14.6825 43.1259L22.765 29.1251H1.43249ZM26.3204 29.1251L17.7079 44.0534C19.2537 44.3847 20.8437 44.5834 22.5 44.5834C27.8 44.5834 32.6583 42.7063 36.4566 39.6147L28.3741 25.5917L26.3204 29.1251Z" fill="white"/>
</svg>
