<svg width="53" height="53" viewBox="0 0 53 53" fill="none" xmlns="http://www.w3.org/2000/svg">
<g clip-path="url(#clip0_20_20472)">
<path d="M35.3333 24.2918C38.9992 24.2918 41.9363 21.3326 41.9363 17.6668C41.9363 14.0009 38.9992 11.0417 35.3333 11.0417C31.6675 11.0417 28.7083 14.0009 28.7083 17.6668C28.7083 21.3326 31.6675 24.2918 35.3333 24.2918ZM17.6667 24.2918C21.3325 24.2918 24.2696 21.3326 24.2696 17.6668C24.2696 14.0009 21.3325 11.0417 17.6667 11.0417C14.0008 11.0417 11.0417 14.0009 11.0417 17.6668C11.0417 21.3326 14.0008 24.2918 17.6667 24.2918ZM17.6667 28.7084C12.5213 28.7084 2.20833 31.2922 2.20833 36.4376V41.9584H33.125V36.4376C33.125 31.2922 22.8121 28.7084 17.6667 28.7084ZM35.3333 28.7084C34.6929 28.7084 33.9642 28.7526 33.1913 28.8188C35.7529 30.6738 37.5417 33.1693 37.5417 36.4376V41.9584H50.7917V36.4376C50.7917 31.2922 40.4788 28.7084 35.3333 28.7084Z" fill="white"/>
</g>
<defs>
<clipPath id="clip0_20_20472">
<rect width="53" height="53" fill="white"/>
</clipPath>
</defs>
</svg>
