<svg width="41" height="45" viewBox="0 0 41 45" fill="none" xmlns="http://www.w3.org/2000/svg">
<path d="M33.3304 5.87133C33.1538 5.87133 32.9771 5.82716 32.8225 5.73883C28.5825 3.55258 24.9167 2.62508 20.5221 2.62508C16.1496 2.62508 11.9979 3.663 8.22166 5.73883C7.69166 6.02591 7.02916 5.82716 6.71999 5.29716C6.43291 4.76716 6.63166 4.08258 7.16166 3.7955C11.2692 1.56508 15.7742 0.416748 20.5221 0.416748C25.2258 0.416748 29.3333 1.45466 33.8383 3.77341C34.3904 4.0605 34.5892 4.723 34.3021 5.253C34.1033 5.6505 33.7279 5.87133 33.3304 5.87133ZM1.72915 17.4651C1.50832 17.4651 1.28749 17.3988 1.08874 17.2663C0.580821 16.913 0.470404 16.2284 0.823737 15.7205C3.00999 12.6288 5.79249 10.1997 9.10499 8.49925C16.0392 4.92175 24.9167 4.89966 31.8729 8.47716C35.1854 10.1776 37.9679 12.5847 40.1542 15.6542C40.5075 16.1401 40.3971 16.8467 39.8892 17.2001C39.3813 17.5534 38.6967 17.443 38.3433 16.9351C36.3558 14.1526 33.8383 11.9663 30.8571 10.4426C24.5192 7.19633 16.4146 7.19633 10.0987 10.4647C7.09541 12.0105 4.57791 14.2188 2.59041 17.0013C2.41374 17.3105 2.08249 17.4651 1.72915 17.4651ZM15.5312 44.1197C15.2442 44.1197 14.9571 44.0092 14.7583 43.7884C12.8371 41.8672 11.7992 40.6305 10.3196 37.9584C8.79583 35.2422 8.00083 31.9297 8.00083 28.3742C8.00083 21.8155 13.61 16.4713 20.5 16.4713C27.39 16.4713 32.9992 21.8155 32.9992 28.3742C32.9992 28.9926 32.5133 29.4784 31.895 29.4784C31.2767 29.4784 30.7908 28.9926 30.7908 28.3742C30.7908 23.0301 26.1754 18.6797 20.5 18.6797C14.8246 18.6797 10.2092 23.0301 10.2092 28.3742C10.2092 31.5542 10.9158 34.4913 12.2629 36.8763C13.6762 39.4159 14.6479 40.498 16.3483 42.2205C16.7679 42.6622 16.7679 43.3467 16.3483 43.7884C16.1054 44.0092 15.8183 44.1197 15.5312 44.1197ZM31.365 40.0342C28.7371 40.0342 26.4183 39.3717 24.5192 38.0688C21.2287 35.8384 19.2633 32.2167 19.2633 28.3742C19.2633 27.7559 19.7492 27.2701 20.3675 27.2701C20.9858 27.2701 21.4717 27.7559 21.4717 28.3742C21.4717 31.488 23.0617 34.4251 25.7558 36.2359C27.3238 37.2959 29.1567 37.8038 31.365 37.8038C31.895 37.8038 32.7783 37.7376 33.6617 37.583C34.2579 37.4726 34.8321 37.8701 34.9425 38.4884C35.0529 39.0847 34.6554 39.6588 34.0371 39.7692C32.7783 40.0122 31.6742 40.0342 31.365 40.0342ZM26.9263 44.5834C26.8379 44.5834 26.7275 44.5613 26.6392 44.5392C23.1279 43.5676 20.8312 42.2647 18.4242 39.9017C15.3325 36.8322 13.6321 32.7467 13.6321 28.3742C13.6321 24.7967 16.6796 21.8817 20.4338 21.8817C24.1879 21.8817 27.2354 24.7967 27.2354 28.3742C27.2354 30.7372 29.2892 32.6584 31.8288 32.6584C34.3683 32.6584 36.4221 30.7372 36.4221 28.3742C36.4221 20.0488 29.245 13.2913 20.4117 13.2913C14.14 13.2913 8.39832 16.7805 5.81457 22.1909C4.95332 23.9797 4.51166 26.0776 4.51166 28.3742C4.51166 30.0967 4.66624 32.813 5.99124 36.3463C6.21207 36.9205 5.92499 37.5609 5.35082 37.7597C4.77666 37.9805 4.13624 37.6713 3.93749 37.1192C2.85541 34.2263 2.3254 31.3555 2.3254 28.3742C2.3254 25.7242 2.83332 23.3172 3.82707 21.2192C6.76416 15.058 13.2787 11.0609 20.4117 11.0609C30.4596 11.0609 38.6304 18.8122 38.6304 28.3522C38.6304 31.9297 35.5829 34.8447 31.8288 34.8447C28.0746 34.8447 25.0271 31.9297 25.0271 28.3522C25.0271 25.9892 22.9733 24.068 20.4338 24.068C17.8942 24.068 15.8404 25.9892 15.8404 28.3522C15.8404 32.1284 17.2979 35.6617 19.97 38.3117C22.0679 40.3876 24.0775 41.5359 27.1913 42.3972C27.7875 42.5517 28.1188 43.1701 27.9642 43.7442C27.8538 44.2522 27.39 44.5834 26.9263 44.5834Z" fill="white"/>
</svg>
